<svg width="18" height="18" viewBox="0 0 26 26" fill="none" xmlns="http://www.w3.org/2000/svg">
<path d="M11.7349 3.53003H3.38553C2.75285 3.53003 2.14608 3.78136 1.69871 4.22873C1.25133 4.67611 1 5.28288 1 5.91556V22.6143C1 23.2469 1.25133 23.8537 1.69871 24.3011C2.14608 24.7485 2.75285 24.9998 3.38553 24.9998H20.0842C20.7169 24.9998 21.3237 24.7485 21.7711 24.3011C22.2184 23.8537 22.4698 23.2469 22.4698 22.6143V14.2649" stroke="black" stroke-width="1.5" stroke-linecap="round" stroke-linejoin="round"/>
<path d="M20.6803 1.74109C21.1548 1.26658 21.7984 1 22.4694 1C23.1405 1 23.7841 1.26658 24.2586 1.74109C24.7331 2.2156 24.9997 2.85918 24.9997 3.53024C24.9997 4.2013 24.7331 4.84487 24.2586 5.31938L12.9273 16.6507L8.15625 17.8434L9.34901 13.0724L20.6803 1.74109Z" stroke="black" stroke-width="1.5" stroke-linecap="round" stroke-linejoin="round"/>
</svg>
