<svg width="20" height="20" viewBox="0 0 28 28" fill="none" xmlns="http://www.w3.org/2000/svg">
<path d="M3.67784 8.39638L4.17673 9.11522H4.17673L3.67784 8.39638ZM11.1314 3.22347L10.6325 2.50463V2.50463L11.1314 3.22347ZM16.8685 3.22347L17.3674 2.50463V2.50463L16.8685 3.22347ZM24.322 8.39638L23.8231 9.11522V9.11522L24.322 8.39638ZM3.28955 13.1189L2.68548 13.7519L2.68548 13.7519L3.28955 13.1189ZM24.7103 13.1189L24.1062 12.4859L24.1062 12.4859L24.7103 13.1189ZM11.6666 20.125C11.1833 20.125 10.7916 20.5167 10.7916 21C10.7916 21.4832 11.1833 21.875 11.6666 21.875V20.125ZM16.3333 21.875C16.8165 21.875 17.2083 21.4832 17.2083 21C17.2083 20.5167 16.8165 20.125 16.3333 20.125V21.875ZM18.877 24.7916H9.12284V26.5416H18.877V24.7916ZM4.17673 9.11522L11.6303 3.94231L10.6325 2.50463L3.17895 7.67754L4.17673 9.11522ZM16.3696 3.94231L23.8231 9.11522L24.8209 7.67754L17.3674 2.50463L16.3696 3.94231ZM22.8791 15.3219V21.0125H24.6291V15.3219H22.8791ZM5.12077 21.0125V15.3219H3.37077V21.0125H5.12077ZM5.12077 15.3219C5.12077 14.25 4.67418 13.2307 3.89363 12.4859L2.68548 13.7519C3.12944 14.1756 3.37077 14.7412 3.37077 15.3219H5.12077ZM24.1062 12.4859C23.3257 13.2307 22.8791 14.25 22.8791 15.3219H24.6291C24.6291 14.7412 24.8704 14.1756 25.3144 13.7519L24.1062 12.4859ZM11.6303 3.94231C13.0404 2.96365 14.9594 2.96365 16.3696 3.94231L17.3674 2.50463C15.3572 1.10954 12.6426 1.10954 10.6325 2.50463L11.6303 3.94231ZM9.12284 24.7916C6.87352 24.7916 5.12077 23.0615 5.12077 21.0125H3.37077C3.37077 24.1043 5.9851 26.5416 9.12284 26.5416V24.7916ZM18.877 26.5416C22.0147 26.5416 24.6291 24.1043 24.6291 21.0125H22.8791C22.8791 23.0615 21.1263 24.7916 18.877 24.7916V26.5416ZM23.8231 9.11522C24.9972 9.93005 25.1182 11.5201 24.1062 12.4859L25.3144 13.7519C27.1394 12.0103 26.8916 9.11469 24.8209 7.67754L23.8231 9.11522ZM3.17895 7.67754C1.1082 9.11469 0.860428 12.0103 2.68548 13.7519L3.89363 12.4859C2.88162 11.5201 3.00267 9.93005 4.17673 9.11522L3.17895 7.67754ZM11.6666 21.875H16.3333V20.125H11.6666V21.875Z" fill="black"/>
</svg>
