<svg width="20" height="20" viewBox="0 0 28 28" fill="none" xmlns="http://www.w3.org/2000/svg">
<path d="M18.1188 12.5961C18.4605 12.2544 18.4605 11.7004 18.1188 11.3587C17.7771 11.017 17.2231 11.017 16.8814 11.3587L18.1188 12.5961ZM15.9917 13.4858L16.6104 14.1045V14.1045L15.9917 13.4858ZM15.9917 15.1357L16.6104 14.517L15.9917 15.1357ZM16.8814 17.2628C17.2231 17.6045 17.7771 17.6045 18.1188 17.2628C18.4605 16.9211 18.4605 16.3671 18.1188 16.0254L16.8814 17.2628ZM16.3334 13.4357C15.8502 13.4357 15.4584 13.8275 15.4584 14.3107C15.4584 14.794 15.8502 15.1857 16.3334 15.1857V13.4357ZM23.3334 15.1858C23.8167 15.1858 24.2084 14.794 24.2084 14.3108C24.2084 13.8275 23.8167 13.4358 23.3334 13.4358V15.1858ZM3.79175 20.1441C3.79175 20.6273 4.1835 21.0191 4.66675 21.0191C5.15 21.0191 5.54175 20.6273 5.54175 20.1441H3.79175ZM19.5417 20.1441C19.5417 19.6608 19.15 19.2691 18.6667 19.2691C18.1835 19.2691 17.7917 19.6608 17.7917 20.1441H19.5417ZM17.7917 8.47738C17.7917 8.96063 18.1835 9.35238 18.6667 9.35238C19.15 9.35238 19.5417 8.96063 19.5417 8.47738H17.7917ZM5.54175 8.47738C5.54175 7.99413 5.15 7.60238 4.66675 7.60238C4.1835 7.60238 3.79175 7.99413 3.79175 8.47738H5.54175ZM5.70578 23.1701L6.19114 22.442L5.70578 23.1701ZM8.03911 24.7256L7.55375 25.4537L8.03911 24.7256ZM8.03912 3.89581L7.55375 3.16776L8.03912 3.89581ZM5.70578 5.45136L5.22042 4.72332L5.70578 5.45136ZM11.6667 5.26905C11.1835 5.26905 10.7917 5.6608 10.7917 6.14405C10.7917 6.6273 11.1835 7.01905 11.6667 7.01905V5.26905ZM11.6667 21.6024C11.1835 21.6024 10.7917 21.9941 10.7917 22.4774C10.7917 22.9606 11.1835 23.3524 11.6667 23.3524V21.6024ZM16.8814 11.3587L15.373 12.8671L16.6104 14.1045L18.1188 12.5961L16.8814 11.3587ZM15.373 15.7544L16.8814 17.2628L18.1188 16.0254L16.6104 14.517L15.373 15.7544ZM15.373 12.8671C14.5757 13.6644 14.5757 14.9571 15.373 15.7544L16.6104 14.517C16.4965 14.4031 16.4965 14.2184 16.6104 14.1045L15.373 12.8671ZM16.3334 15.1857L23.3334 15.1858V13.4358L16.3334 13.4357V15.1857ZM5.54175 20.1441V8.47738H3.79175V20.1441H5.54175ZM17.7917 20.1441C17.7917 20.9495 17.1388 21.6024 16.3334 21.6024V23.3524C18.1053 23.3524 19.5417 21.916 19.5417 20.1441H17.7917ZM16.3334 7.01905C17.1388 7.01905 17.7917 7.67197 17.7917 8.47738H19.5417C19.5417 6.70547 18.1053 5.26905 16.3334 5.26905V7.01905ZM6.19114 6.17941L8.52448 4.62385L7.55375 3.16776L5.22042 4.72332L6.19114 6.17941ZM10.7917 5.83726V22.7842H12.5417V5.83726H10.7917ZM8.52448 23.9976L6.19114 22.442L5.22042 23.8981L7.55375 25.4537L8.52448 23.9976ZM5.54175 21.2286V7.39281H3.79175V21.2286H5.54175ZM6.19114 22.442C5.78544 22.1716 5.54175 21.7162 5.54175 21.2286H3.79175C3.79175 22.3013 4.32786 23.3031 5.22042 23.8981L6.19114 22.442ZM10.7917 22.7842C10.7917 23.9489 9.49362 24.6437 8.52448 23.9976L7.55375 25.4537C9.68587 26.8751 12.5417 25.3467 12.5417 22.7842H10.7917ZM8.52448 4.62385C9.49362 3.97776 10.7917 4.67249 10.7917 5.83726H12.5417C12.5417 3.27478 9.68587 1.74635 7.55375 3.16776L8.52448 4.62385ZM5.22042 4.72332C4.32786 5.31835 3.79175 6.3201 3.79175 7.39281H5.54175C5.54175 6.90521 5.78544 6.44988 6.19114 6.17941L5.22042 4.72332ZM11.6667 7.01905H16.3334V5.26905H11.6667V7.01905ZM16.3334 21.6024H11.6667V23.3524H16.3334V21.6024Z" fill="black" fill-opacity="0.7"/>
</svg>
