<svg width="20" height="20" viewBox="0 0 20 20" fill="none" xmlns="http://www.w3.org/2000/svg">
<path d="M14.75 9C14.75 9.41421 15.0858 9.75 15.5 9.75C15.9142 9.75 16.25 9.41421 16.25 9H14.75ZM12 13.25C12.4142 13.25 12.75 12.9142 12.75 12.5C12.75 12.0858 12.4142 11.75 12 11.75V13.25ZM12 11.75C10.4812 11.75 9.25 10.5188 9.25 9H7.75C7.75 11.3472 9.65279 13.25 12 13.25V11.75ZM9.25 9C9.25 7.48122 10.4812 6.25 12 6.25V4.75C9.65279 4.75 7.75 6.65279 7.75 9H9.25ZM12 6.25C13.5188 6.25 14.75 7.48122 14.75 9H16.25C16.25 6.65279 14.3472 4.75 12 4.75V6.25Z" fill="#28303F"/>
<path d="M9.25 16C9.25 15.5858 8.91421 15.25 8.5 15.25C8.08579 15.25 7.75 15.5858 7.75 16H9.25ZM12 11.75C11.5858 11.75 11.25 12.0858 11.25 12.5C11.25 12.9142 11.5858 13.25 12 13.25V11.75ZM14.75 16C14.75 17.5188 13.5188 18.75 12 18.75V20.25C14.3472 20.25 16.25 18.3472 16.25 16H14.75ZM12 18.75C10.4812 18.75 9.25 17.5188 9.25 16H7.75C7.75 18.3472 9.65279 20.25 12 20.25V18.75ZM12 13.25C13.5188 13.25 14.75 14.4812 14.75 16H16.25C16.25 13.6528 14.3472 11.75 12 11.75V13.25Z" fill="#28303F"/>
<path d="M12 3.5V21.5" stroke="#28303F" stroke-width="1.5" stroke-linecap="round" stroke-linejoin="round"/>
</svg>
