<svg width="20" height="20" viewBox="0 0 28 28" fill="none" xmlns="http://www.w3.org/2000/svg">
<path d="M21.6519 22.8067C20.4929 19.7068 17.5041 17.4997 13.9999 17.4997C10.4957 17.4997 7.50695 19.7068 6.34795 22.8067M21.6519 22.8067C24.1116 20.6677 25.6666 17.5153 25.6666 13.9997C25.6666 7.55641 20.4432 2.33307 13.9999 2.33307C7.5566 2.33307 2.33325 7.55641 2.33325 13.9997C2.33325 17.5153 3.88824 20.6677 6.34795 22.8067M21.6519 22.8067C19.6035 24.588 16.9276 25.6664 13.9999 25.6664C11.0722 25.6664 8.39635 24.588 6.34795 22.8067M17.4999 10.4997C17.4999 12.4327 15.9329 13.9997 13.9999 13.9997C12.0669 13.9997 10.4999 12.4327 10.4999 10.4997C10.4999 8.56674 12.0669 6.99974 13.9999 6.99974C15.9329 6.99974 17.4999 8.56674 17.4999 10.4997Z" stroke="black" stroke-opacity="0.7" stroke-width="1.75" stroke-linejoin="round"/>
</svg>
