<svg width="20" height="20" viewBox="0 0 28 28" fill="none" xmlns="http://www.w3.org/2000/svg">
<path d="M25.6666 5.83325L26.4166 5.83325L26.4166 5.83325L25.6666 5.83325ZM2.33325 5.83325L1.58325 5.83325L2.33325 5.83325ZM5.83325 2.33325L5.83325 3.08325L5.83325 2.33325ZM5.83325 19.8333L5.83325 20.5833H5.83325L5.83325 19.8333ZM2.33325 16.3333L3.08325 16.3333L2.33325 16.3333ZM22.1666 19.8333L22.1666 19.0833H22.1666L22.1666 19.8333ZM25.6666 16.3333L24.9166 16.3333L24.9166 16.3333L25.6666 16.3333ZM8.16659 7.41659C7.75237 7.41659 7.41659 7.75237 7.41659 8.16659C7.41659 8.5808 7.75237 8.91659 8.16659 8.91659V7.41659ZM19.8333 8.91659C20.2475 8.91659 20.5833 8.5808 20.5833 8.16659C20.5833 7.75237 20.2475 7.41659 19.8333 7.41659V8.91659ZM8.16659 13.2499C7.75237 13.2499 7.41659 13.5857 7.41659 13.9999C7.41659 14.4141 7.75237 14.7499 8.16659 14.7499V13.2499ZM13.9999 14.7499C14.4141 14.7499 14.7499 14.4141 14.7499 13.9999C14.7499 13.5857 14.4141 13.2499 13.9999 13.2499V14.7499ZM19.3097 19.4474C19.0966 19.0922 18.6359 18.977 18.2807 19.1901C17.9255 19.4032 17.8104 19.8639 18.0235 20.2191L19.3097 19.4474ZM21.5235 26.0525C21.7366 26.4076 22.1973 26.5228 22.5525 26.3097C22.9076 26.0966 23.0228 25.6359 22.8097 25.2807L21.5235 26.0525ZM9.97637 20.2191C10.1895 19.8639 10.0743 19.4032 9.71912 19.1901C9.36394 18.977 8.90324 19.0922 8.69013 19.4474L9.97637 20.2191ZM5.19013 25.2807C4.97702 25.6359 5.0922 26.0966 5.44738 26.3097C5.80257 26.5228 6.26326 26.4076 6.47637 26.0525L5.19013 25.2807ZM14.7499 19.8333C14.7499 19.419 14.4141 19.0833 13.9999 19.0833C13.5857 19.0833 13.2499 19.419 13.2499 19.8333H14.7499ZM13.2499 23.3333C13.2499 23.7475 13.5857 24.0833 13.9999 24.0833C14.4141 24.0833 14.7499 23.7475 14.7499 23.3333H13.2499ZM22.1666 19.0833L5.83325 19.0833L5.83325 20.5833L22.1666 20.5833L22.1666 19.0833ZM3.08325 16.3333L3.08325 5.83325L1.58325 5.83325L1.58325 16.3333L3.08325 16.3333ZM5.83325 3.08325L22.1666 3.08325L22.1666 1.58325L5.83325 1.58325L5.83325 3.08325ZM24.9166 5.83325L24.9166 16.3333L26.4166 16.3333L26.4166 5.83325L24.9166 5.83325ZM22.1666 3.08325C23.6854 3.08325 24.9166 4.31447 24.9166 5.83325L26.4166 5.83325C26.4166 3.48604 24.5138 1.58325 22.1666 1.58325L22.1666 3.08325ZM3.08325 5.83325C3.08325 4.31447 4.31447 3.08325 5.83325 3.08325L5.83325 1.58325C3.48604 1.58325 1.58325 3.48604 1.58325 5.83325L3.08325 5.83325ZM5.83325 19.0833C4.31447 19.0833 3.08325 17.852 3.08325 16.3333L1.58325 16.3333C1.58325 18.6805 3.48604 20.5833 5.83325 20.5833L5.83325 19.0833ZM22.1666 20.5833C24.5138 20.5833 26.4166 18.6805 26.4166 16.3333L24.9166 16.3333C24.9166 17.852 23.6854 19.0833 22.1666 19.0833L22.1666 20.5833ZM8.16659 8.91659H19.8333V7.41659H8.16659V8.91659ZM8.16659 14.7499H13.9999V13.2499H8.16659V14.7499ZM18.0235 20.2191L21.5235 26.0525L22.8097 25.2807L19.3097 19.4474L18.0235 20.2191ZM8.69013 19.4474L5.19013 25.2807L6.47637 26.0525L9.97637 20.2191L8.69013 19.4474ZM13.2499 19.8333V23.3333H14.7499V19.8333H13.2499Z" fill="black"/>
</svg>
