<svg width="20" height="20" viewBox="0 0 29 30" fill="none" xmlns="http://www.w3.org/2000/svg">
<path fill-rule="evenodd" clip-rule="evenodd" d="M25.7713 7.97136V10.6071C25.7713 13.0332 24.0231 14.9999 21.8666 14.9999C19.71 14.9999 17.9618 13.0332 17.9618 10.6071C17.9618 13.0332 16.2136 14.9999 14.0571 14.9999C11.9005 14.9999 10.1523 13.0332 10.1523 10.6071C10.1523 13.0332 8.40408 14.9999 6.24754 14.9999C4.091 14.9999 2.34277 13.0332 2.34277 10.6071V7.97136C2.34277 5.38351 4.44064 3.28564 7.02848 3.28564H21.0856C23.6735 3.28564 25.7713 5.38351 25.7713 7.97136ZM21.8667 16.7571C20.3003 16.7571 18.9504 16.0979 17.9619 15.0655C16.9734 16.0979 15.6235 16.7571 14.0571 16.7571C12.4908 16.7571 11.1409 16.0979 10.1524 15.0655C9.16391 16.0979 7.81396 16.7571 6.24762 16.7571C5.23244 16.7571 4.30817 16.4802 3.51429 16.0043V22.0285C3.51429 24.6163 5.61215 26.7142 8.2 26.7142H19.9143C22.5021 26.7142 24.6 24.6163 24.6 22.0285V16.0043C23.8061 16.4802 22.8818 16.7571 21.8667 16.7571ZM18.3367 21.5971C18.575 22.0198 18.4256 22.5556 18.0029 22.7939C16.5794 23.5964 15.3533 24.0761 14.0605 24.0786C12.766 24.0811 11.5375 23.6052 10.1084 22.7922C9.68668 22.5523 9.53928 22.0159 9.77921 21.5941C10.0191 21.1724 10.5555 21.025 10.9773 21.2649C12.3083 22.0221 13.2162 22.323 14.0571 22.3214C14.8996 22.3198 15.8077 22.0144 17.1399 21.2633C17.5626 21.025 18.0984 21.1744 18.3367 21.5971Z" fill="#28303F"/>
</svg>
