<svg width="20" height="20" viewBox="0 0 28 28" fill="none" xmlns="http://www.w3.org/2000/svg">
<path d="M9.33325 10.7917C8.85 10.7917 8.45825 11.1834 8.45825 11.6667C8.45825 12.1499 8.85 12.5417 9.33325 12.5417V10.7917ZM18.6666 12.5417C19.1498 12.5417 19.5416 12.1499 19.5416 11.6667C19.5416 11.1834 19.1498 10.7917 18.6666 10.7917V12.5417ZM9.33325 15.4583C8.85 15.4583 8.45825 15.8501 8.45825 16.3333C8.45825 16.8166 8.85 17.2083 9.33325 17.2083V15.4583ZM13.9999 17.2083C14.4832 17.2083 14.8749 16.8166 14.8749 16.3333C14.8749 15.8501 14.4832 15.4583 13.9999 15.4583V17.2083ZM12.8333 4.375H15.1666V2.625H12.8333V4.375ZM3.20825 19.8333V14H1.45825V19.8333H3.20825ZM15.1666 23.625H6.99992V25.375H15.1666V23.625ZM1.45825 19.8333C1.45825 22.8939 3.93934 25.375 6.99992 25.375V23.625C4.90584 23.625 3.20825 21.9274 3.20825 19.8333H1.45825ZM24.7916 14C24.7916 19.3157 20.4823 23.625 15.1666 23.625V25.375C21.4488 25.375 26.5416 20.2822 26.5416 14H24.7916ZM15.1666 4.375C20.4823 4.375 24.7916 8.68426 24.7916 14H26.5416C26.5416 7.71776 21.4488 2.625 15.1666 2.625V4.375ZM12.8333 2.625C6.55101 2.625 1.45825 7.71776 1.45825 14H3.20825C3.20825 8.68426 7.51751 4.375 12.8333 4.375V2.625ZM9.33325 12.5417H18.6666V10.7917H9.33325V12.5417ZM9.33325 17.2083H13.9999V15.4583H9.33325V17.2083Z" fill="black" fill-opacity="0.7"/>
</svg>
