<svg width="24" height="24" viewBox="0 0 24 24" fill="none" xmlns="http://www.w3.org/2000/svg">
<path d="M15.3244 1.82192C15.226 1.56388 14.9371 1.43444 14.6791 1.53279C14.421 1.63114 14.2916 1.92005 14.3899 2.17808L15.3244 1.82192ZM8.67565 22.1781C8.774 22.4361 9.06291 22.5656 9.32095 22.4672C9.57898 22.3689 9.70842 22.0799 9.61007 21.8219L8.67565 22.1781ZM16.0352 5.09076L15.7827 5.52228C15.9657 5.62943 16.1965 5.6094 16.3584 5.47231C16.5203 5.33521 16.578 5.11089 16.5024 4.91268L16.0352 5.09076ZM7.96473 18.9092L8.2173 18.4777C8.03422 18.3705 7.80346 18.3906 7.64158 18.5277C7.47971 18.6648 7.42197 18.8891 7.49752 19.0873L7.96473 18.9092ZM4.63745 16.2504C4.77573 16.4894 5.08159 16.5711 5.32062 16.4328C5.55965 16.2945 5.64133 15.9887 5.50306 15.7496L4.63745 16.2504ZM19.3625 7.74964C19.2243 7.51061 18.9184 7.42893 18.6794 7.5672C18.4403 7.70547 18.3587 8.01133 18.4969 8.25036L19.3625 7.74964ZM19.5 12C19.5 16.1421 16.1421 19.5 12 19.5V20.5C16.6944 20.5 20.5 16.6944 20.5 12H19.5ZM4.5 12C4.5 7.85786 7.85786 4.5 12 4.5V3.5C7.30558 3.5 3.5 7.30558 3.5 12H4.5ZM12 4.5C13.3806 4.5 14.6726 4.87255 15.7827 5.52228L16.2878 4.65924C15.0287 3.92226 13.5629 3.5 12 3.5V4.5ZM16.5024 4.91268L15.3244 1.82192L14.3899 2.17808L15.568 5.26885L16.5024 4.91268ZM12 19.5C10.6194 19.5 9.3274 19.1274 8.2173 18.4777L7.71216 19.3407C8.97132 20.0777 10.4371 20.5 12 20.5V19.5ZM7.49752 19.0873L8.67565 22.1781L9.61007 21.8219L8.43194 18.7311L7.49752 19.0873ZM5.50306 15.7496C4.86522 14.647 4.5 13.3669 4.5 12H3.5C3.5 13.5474 3.91394 14.9996 4.63745 16.2504L5.50306 15.7496ZM18.4969 8.25036C19.1348 9.353 19.5 10.6331 19.5 12H20.5C20.5 10.4526 20.0861 9.00038 19.3625 7.74964L18.4969 8.25036Z" fill="black"/>
</svg>
